# xmcd
#
# Track frame offsets: 
#        150
#        24727
#        62625
#        82950
#        112727
#        140452
#        174875
#        201850
#        223555
#        262677
#        286677
#
# Disc length: 4157 seconds
#
# Revision: 1
# Processed by: cddbd v1.5.2PL0 Copyright (c) Steve Scherf et al.
# Submitted via: ExactAudioCopy v1.0b3
#
DISCID=8a103b0b
DTITLE=Harry Allen - Just You Just Me
DYEAR=1900
DGENRE=Jazz
TTITLE0=You Make Me Feel So Young 
TTITLE1=Tickle Toe
TTITLE2=Lonesome Road
TTITLE3=Dropsy
TTITLE4=Sound Investment
TTITLE5=Robbin's Nest
TTITLE6=Just You Just Me
TTITLE7=I Got It Bad And That A'nt Good
TTITLE8=Apple Honey
TTITLE9=Jake's lament
TTITLE10=My Heart Stood Still
EXTD=
EXTT0=
EXTT1=
EXTT2=
EXTT3=
EXTT4=
EXTT5=
EXTT6=
EXTT7=
EXTT8=
EXTT9=
EXTT10=
PLAYORDER=
